<svg width="1000" height="989" viewBox="0 0 1000 989" fill="none" xmlns="http://www.w3.org/2000/svg">
<path d="M905.702 785.83C826.045 897.698 714.192 954.142 582.76 984.802C582.76 943.572 582.811 904.99 582.742 866.408C582.695 839.874 582.324 813.34 582.373 786.806C582.47 733.616 557.58 697.101 508.59 677.224C476.151 664.062 442.895 652.843 410.824 638.875C397.516 633.078 383.633 624.592 374.626 613.565C292.757 513.341 332.367 388.46 429.204 340.641C528.856 291.431 670.388 365.486 669.59 501.633C669.401 533.899 660.88 563.651 642.775 592.899C627.201 579.871 609.46 569.281 598.011 553.986C590.126 543.452 586.764 525.825 588.611 512.359C597.435 448.032 543.864 396.526 480.365 409.893C446.355 417.053 423.805 436.095 414.446 469.958C404.517 505.887 411.091 537.694 437.887 565.795C457.739 533.957 476.965 503.122 497.864 469.603C506.724 480.346 509.5 482.5 521 499C532.5 515.5 597.631 621.547 632.581 684.767C657.589 730.002 666.666 780.15 662.402 832.264C661.368 844.901 662.248 857.694 662.248 870.488C780.412 863.684 922.716 652.333 918.142 492.872C911.562 263.499 728.473 84.3239 499.813 83.4862C276.822 82.6692 92.5877 257.153 81.7374 474.175C68.9275 730.393 279.623 886.515 423.138 900.783C423.138 877.825 425.154 854.73 422.032 832.351C420.955 824.626 408.136 815.538 398.885 812.463C356.324 798.311 315.649 780.478 281.932 750.68C177.912 658.752 140.075 542.668 175.951 410.013C211.922 277.007 303.039 192.765 440.331 170.736C669.869 133.907 805.453 290.323 834.082 450.686C848.624 532.139 827.35 607.146 781.911 675.294C765.679 699.639 746.787 722.211 728.486 746.416C713.918 727.945 699.182 711.692 687.794 693.361C684.322 687.771 687.368 674.503 692.031 668.098C719.649 630.161 742.826 590.329 750.393 543.311C770.597 417.778 703.677 304.6 584.366 261.743C461.135 217.477 327.135 269.653 271.739 383.472C214.513 501.05 251.335 638.268 361.181 705.906C388.596 722.786 421.108 732.665 452.473 741.539C489.04 751.884 500.129 762.747 500.216 800.83C500.332 851.751 500.528 902.671 500.504 953.592C500.49 981.851 493.08 989.462 464.745 988.979C364.165 987.265 276.667 948.228 196.675 891.175C82.3274 809.62 20.6885 696.832 4.50541 558.016C-8.37068 447.567 4.68856 341.698 65.3936 246.582C248.666 -40.581 629.89 -85.7773 861.668 157.776C955.452 256.325 1003.31 373.584 999.822 510.03C997.247 610.838 964.46 702.139 905.702 785.83Z" fill="#114F67"/>
</svg>
