<svg width="1112" height="167" viewBox="0 0 1112 167" fill="none" xmlns="http://www.w3.org/2000/svg">
<path d="M26.1447 127.096C38.0932 143.837 54.8712 152.284 74.586 156.872C74.586 150.702 74.5783 144.928 74.5887 139.155C74.5958 135.184 74.6513 131.213 74.6441 127.242C74.6295 119.283 78.363 113.818 85.7115 110.844C90.5774 108.874 95.5658 107.195 100.376 105.105C102.373 104.238 104.455 102.968 105.806 101.318C118.086 86.3194 112.145 67.6316 97.6195 60.4756C82.6716 53.1115 61.4418 64.1935 61.5615 84.5674C61.5898 89.396 62.868 93.8482 65.5837 98.2251C67.9198 96.2754 70.5811 94.6906 72.2983 92.4018C73.4811 90.8254 73.9854 88.1876 73.7083 86.1725C72.3847 76.5462 80.4203 68.8386 89.9452 70.8389C95.0468 71.9103 98.4293 74.7599 99.833 79.8274C101.322 85.204 100.336 89.9638 96.3169 94.1691C93.3391 89.4045 90.4553 84.7902 87.3204 79.7743C85.9914 81.382 85.575 81.7042 83.85 84.1734C82.125 86.6426 72.3554 102.512 67.1128 111.973C63.3617 118.742 62.0001 126.246 62.6397 134.045C62.7948 135.936 62.6627 137.851 62.6627 139.765C44.9381 138.747 23.5926 107.119 24.2787 83.2563C25.2657 48.9316 52.7291 22.1187 87.0281 21.9934C120.477 21.8711 148.112 47.982 149.739 80.4584C151.661 118.8 120.057 142.164 98.5294 144.299C98.5294 140.863 98.2269 137.407 98.6951 134.058C98.8568 132.902 100.78 131.542 102.167 131.082C108.551 128.964 114.653 126.296 119.71 121.836C135.313 108.08 140.989 90.7082 135.607 70.8569C130.212 50.9531 116.544 38.3466 95.9503 35.05C61.5197 29.5386 41.182 52.9457 36.8877 76.9434C34.7064 89.1325 37.8975 100.357 44.7133 110.555C47.1481 114.198 49.982 117.576 52.7271 121.198C54.9123 118.434 57.1227 116.002 58.8308 113.259C59.3517 112.422 58.8949 110.437 58.1954 109.478C54.0527 103.801 50.5761 97.8404 49.441 90.8044C46.4104 72.0189 56.4484 55.0822 74.345 48.6688C92.8298 42.0446 112.93 49.8525 121.239 66.8851C129.823 84.4801 124.3 105.014 107.823 115.136C103.711 117.662 98.8338 119.14 94.129 120.468C88.644 122.017 86.9806 123.642 86.9676 129.341C86.9503 136.961 86.9208 144.581 86.9245 152.201C86.9265 156.43 88.0381 157.569 92.2883 157.497C107.375 157.24 120.5 151.399 132.499 142.861C149.651 130.657 158.897 113.778 161.324 93.0049C163.256 76.4766 161.297 60.6338 152.191 46.4C124.7 3.42721 67.5165 -3.33624 32.7498 33.1105C18.6822 47.858 11.5037 65.4054 12.0267 85.824C12.413 100.91 17.331 114.572 26.1447 127.096Z" fill="#114F67"/>
<path d="M215.92 111.9C212.133 111.9 208.613 111.1 205.36 109.5C202.107 107.847 199.28 105.633 196.88 102.86C194.48 100.087 192.613 96.9933 191.28 93.58C190 90.1667 189.36 86.6467 189.36 83.02C189.36 79.18 190 75.5533 191.28 72.14C192.613 68.6733 194.453 65.6067 196.8 62.94C199.147 60.2733 201.92 58.1667 205.12 56.62C208.32 55.0733 211.813 54.3 215.6 54.3C221.2 54.3 225.76 55.4467 229.28 57.74C232.8 60.0333 235.467 63.02 237.28 66.7L232.96 69.58C231.147 66.06 228.72 63.4733 225.68 61.82C222.64 60.1667 219.253 59.34 215.52 59.34C212.373 59.34 209.52 60.0067 206.96 61.34C204.453 62.6733 202.293 64.46 200.48 66.7C198.667 68.94 197.28 71.4733 196.32 74.3C195.413 77.1267 194.96 80.06 194.96 83.1C194.96 86.3 195.493 89.34 196.56 92.22C197.627 95.0467 199.147 97.58 201.12 99.82C203.093 102.007 205.36 103.74 207.92 105.02C210.533 106.247 213.333 106.86 216.32 106.86C219.787 106.86 223.067 106.007 226.16 104.3C229.253 102.54 232.213 99.8467 235.04 96.22V102.14C229.653 108.647 223.28 111.9 215.92 111.9ZM234.16 87.9H221.52V83.58H238.88V111.5H234.16V87.9ZM249.506 53.1H254.946V102.06C254.946 104.14 255.319 105.5 256.066 106.14C256.812 106.78 257.719 107.1 258.786 107.1C259.746 107.1 260.706 106.993 261.666 106.78C262.626 106.567 263.452 106.353 264.146 106.14L265.106 110.54C264.092 110.967 262.839 111.313 261.346 111.58C259.906 111.847 258.652 111.98 257.586 111.98C255.132 111.98 253.159 111.26 251.666 109.82C250.226 108.38 249.506 106.407 249.506 103.9V53.1ZM288.823 112.3C285.836 112.3 283.063 111.74 280.503 110.62C277.996 109.447 275.809 107.873 273.943 105.9C272.129 103.873 270.716 101.58 269.703 99.02C268.689 96.4067 268.183 93.66 268.183 90.78C268.183 87.7933 268.689 85.02 269.703 82.46C270.716 79.8467 272.156 77.5533 274.023 75.58C275.889 73.5533 278.076 71.98 280.583 70.86C283.143 69.6867 285.916 69.1 288.903 69.1C291.889 69.1 294.636 69.6867 297.143 70.86C299.649 71.98 301.836 73.5533 303.703 75.58C305.569 77.5533 307.009 79.8467 308.023 82.46C309.036 85.02 309.543 87.7933 309.543 90.78C309.543 93.66 309.036 96.4067 308.023 99.02C307.009 101.58 305.569 103.873 303.703 105.9C301.889 107.873 299.703 109.447 297.143 110.62C294.636 111.74 291.863 112.3 288.823 112.3ZM273.703 90.86C273.703 93.9533 274.369 96.78 275.703 99.34C277.089 101.847 278.929 103.847 281.223 105.34C283.516 106.78 286.049 107.5 288.823 107.5C291.596 107.5 294.129 106.753 296.423 105.26C298.716 103.767 300.556 101.74 301.943 99.18C303.329 96.5667 304.023 93.74 304.023 90.7C304.023 87.6067 303.329 84.78 301.943 82.22C300.556 79.66 298.716 77.6333 296.423 76.14C294.129 74.6467 291.596 73.9 288.823 73.9C286.049 73.9 283.516 74.6733 281.223 76.22C278.983 77.7667 277.169 79.82 275.783 82.38C274.396 84.8867 273.703 87.7133 273.703 90.86ZM339.041 112.3C335.787 112.3 332.774 111.473 330.001 109.82C327.227 108.113 325.067 105.98 323.521 103.42V111.5H318.641V53.1H324.081V78.54C325.947 75.7133 328.187 73.4467 330.801 71.74C333.414 69.98 336.454 69.1 339.921 69.1C342.854 69.1 345.467 69.7133 347.761 70.94C350.107 72.1667 352.107 73.82 353.761 75.9C355.414 77.9267 356.667 80.2467 357.521 82.86C358.374 85.42 358.801 88.06 358.801 90.78C358.801 93.7133 358.294 96.46 357.281 99.02C356.321 101.58 354.934 103.873 353.121 105.9C351.307 107.873 349.201 109.447 346.801 110.62C344.454 111.74 341.867 112.3 339.041 112.3ZM337.761 107.5C340.001 107.5 342.081 107.047 344.001 106.14C345.921 105.233 347.574 103.98 348.961 102.38C350.347 100.78 351.414 98.9933 352.161 97.02C352.907 94.9933 353.281 92.9133 353.281 90.78C353.281 87.8467 352.641 85.1 351.361 82.54C350.134 79.9267 348.401 77.8467 346.161 76.3C343.974 74.7 341.387 73.9 338.401 73.9C336.267 73.9 334.267 74.38 332.401 75.34C330.587 76.3 328.961 77.58 327.521 79.18C326.134 80.7267 324.987 82.4333 324.081 84.3V97.26C324.294 98.7 324.854 100.06 325.761 101.34C326.667 102.567 327.787 103.633 329.121 104.54C330.507 105.447 331.947 106.167 333.441 106.7C334.934 107.233 336.374 107.5 337.761 107.5ZM364.656 99.5C364.656 96.8867 365.402 94.6467 366.896 92.78C368.389 90.86 370.442 89.3933 373.056 88.38C375.722 87.3133 378.789 86.78 382.256 86.78C384.282 86.78 386.389 86.94 388.576 87.26C390.762 87.58 392.709 88.06 394.416 88.7V85.18C394.416 81.66 393.376 78.86 391.296 76.78C389.216 74.7 386.336 73.66 382.656 73.66C380.416 73.66 378.202 74.0867 376.016 74.94C373.882 75.74 371.642 76.94 369.296 78.54L367.216 74.7C369.936 72.8333 372.602 71.4467 375.216 70.54C377.829 69.58 380.496 69.1 383.216 69.1C388.336 69.1 392.389 70.5667 395.376 73.5C398.362 76.4333 399.856 80.4867 399.856 85.66V104.94C399.856 105.687 400.016 106.247 400.336 106.62C400.656 106.94 401.162 107.127 401.856 107.18V111.5C401.269 111.553 400.762 111.607 400.336 111.66C399.909 111.713 399.589 111.713 399.376 111.66C398.042 111.607 397.029 111.18 396.336 110.38C395.642 109.58 395.269 108.727 395.216 107.82L395.136 104.78C393.269 107.18 390.842 109.047 387.856 110.38C384.869 111.66 381.829 112.3 378.736 112.3C376.069 112.3 373.642 111.74 371.456 110.62C369.322 109.447 367.642 107.9 366.416 105.98C365.242 104.007 364.656 101.847 364.656 99.5ZM392.576 102.7C393.162 101.953 393.616 101.233 393.936 100.54C394.256 99.8467 394.416 99.2333 394.416 98.7V92.62C392.602 91.9267 390.709 91.3933 388.736 91.02C386.816 90.6467 384.869 90.46 382.896 90.46C379.002 90.46 375.856 91.2333 373.456 92.78C371.056 94.3267 369.856 96.4333 369.856 99.1C369.856 100.647 370.256 102.113 371.056 103.5C371.856 104.833 373.029 105.953 374.576 106.86C376.122 107.713 377.936 108.14 380.016 108.14C382.629 108.14 385.056 107.633 387.296 106.62C389.589 105.607 391.349 104.3 392.576 102.7ZM411.849 53.1H417.289V102.06C417.289 104.14 417.663 105.5 418.409 106.14C419.156 106.78 420.063 107.1 421.129 107.1C422.089 107.1 423.049 106.993 424.009 106.78C424.969 106.567 425.796 106.353 426.489 106.14L427.449 110.54C426.436 110.967 425.183 111.313 423.689 111.58C422.249 111.847 420.996 111.98 419.929 111.98C417.476 111.98 415.503 111.26 414.009 109.82C412.569 108.38 411.849 106.407 411.849 103.9V53.1ZM452.495 111.5V54.7H476.495C478.948 54.7 481.188 55.2067 483.215 56.22C485.242 57.2333 487.002 58.62 488.495 60.38C490.042 62.0867 491.215 64.0067 492.015 66.14C492.868 68.22 493.295 70.3533 493.295 72.54C493.295 75.26 492.762 77.82 491.695 80.22C490.682 82.62 489.215 84.6467 487.295 86.3C485.428 87.9533 483.215 89.0467 480.655 89.58L494.575 111.5H488.255L474.895 90.54H458.095V111.5H452.495ZM458.095 85.58H476.655C478.895 85.58 480.842 84.9667 482.495 83.74C484.148 82.5133 485.428 80.9133 486.335 78.94C487.242 76.9133 487.695 74.78 487.695 72.54C487.695 70.2467 487.162 68.14 486.095 66.22C485.082 64.2467 483.695 62.6733 481.935 61.5C480.228 60.2733 478.308 59.66 476.175 59.66H458.095V85.58ZM520.391 112.3C517.404 112.3 514.631 111.74 512.071 110.62C509.511 109.447 507.297 107.873 505.431 105.9C503.564 103.873 502.097 101.553 501.031 98.94C500.017 96.3267 499.511 93.5267 499.511 90.54C499.511 86.6467 500.391 83.0733 502.151 79.82C503.964 76.5667 506.444 73.98 509.591 72.06C512.737 70.0867 516.311 69.1 520.311 69.1C524.417 69.1 527.991 70.0867 531.031 72.06C534.124 74.0333 536.551 76.6467 538.311 79.9C540.071 83.1 540.951 86.62 540.951 90.46C540.951 90.8867 540.951 91.3133 540.951 91.74C540.951 92.1133 540.924 92.4067 540.871 92.62H505.191C505.457 95.6067 506.284 98.2733 507.671 100.62C509.111 102.913 510.951 104.753 513.191 106.14C515.484 107.473 517.964 108.14 520.631 108.14C523.351 108.14 525.911 107.447 528.311 106.06C530.764 104.673 532.471 102.86 533.431 100.62L538.151 101.9C537.297 103.873 535.991 105.66 534.231 107.26C532.471 108.86 530.391 110.113 527.991 111.02C525.644 111.873 523.111 112.3 520.391 112.3ZM505.031 88.7H535.831C535.617 85.66 534.791 82.9933 533.351 80.7C531.964 78.4067 530.124 76.62 527.831 75.34C525.591 74.0067 523.111 73.34 520.391 73.34C517.671 73.34 515.191 74.0067 512.951 75.34C510.711 76.62 508.871 78.4333 507.431 80.78C506.044 83.0733 505.244 85.7133 505.031 88.7ZM550.875 111.5V74.14H545.115V69.82H550.875V68.7C550.875 65.2867 551.355 62.3533 552.315 59.9C553.328 57.4467 554.742 55.58 556.555 54.3C558.422 52.9667 560.608 52.3 563.115 52.3C564.768 52.3 566.368 52.54 567.915 53.02C569.462 53.5 570.795 54.14 571.915 54.94L570.235 58.86C569.542 58.2733 568.635 57.82 567.515 57.5C566.395 57.18 565.275 57.02 564.155 57.02C561.648 57.02 559.702 58.0067 558.315 59.98C556.982 61.9533 556.315 64.8067 556.315 68.54V69.82H567.835V74.14H556.315V111.5H550.875ZM574.881 94.3V69.82H580.321V93.34C580.321 98.0867 581.121 101.633 582.721 103.98C584.375 106.327 586.801 107.5 590.001 107.5C592.135 107.5 594.188 107.047 596.161 106.14C598.188 105.18 599.975 103.847 601.521 102.14C603.068 100.38 604.241 98.3533 605.041 96.06V69.82H610.481V104.94C610.481 105.687 610.641 106.247 610.961 106.62C611.281 106.94 611.761 107.127 612.401 107.18V111.5C611.761 111.553 611.255 111.58 610.881 111.58C610.508 111.633 610.161 111.66 609.841 111.66C608.775 111.553 607.841 111.127 607.041 110.38C606.295 109.633 605.895 108.727 605.841 107.66L605.681 102.06C603.868 105.26 601.388 107.767 598.241 109.58C595.148 111.393 591.788 112.3 588.161 112.3C583.788 112.3 580.481 110.78 578.241 107.74C576.001 104.7 574.881 100.22 574.881 94.3ZM639.501 112.06C636.675 112.06 634.061 111.473 631.661 110.3C629.261 109.127 627.181 107.553 625.421 105.58C623.715 103.553 622.381 101.26 621.421 98.7C620.461 96.14 619.981 93.5 619.981 90.78C619.981 87.8467 620.435 85.1 621.341 82.54C622.301 79.9267 623.635 77.6067 625.341 75.58C627.101 73.5533 629.155 71.98 631.501 70.86C633.848 69.6867 636.461 69.1 639.341 69.1C642.915 69.1 646.008 70.0067 648.621 71.82C651.288 73.6333 653.528 75.8733 655.341 78.54V69.82H660.221V111.66C660.221 115.5 659.288 118.727 657.421 121.34C655.608 124.007 653.128 126.007 649.981 127.34C646.888 128.673 643.501 129.34 639.821 129.34C635.075 129.34 631.235 128.487 628.301 126.78C625.368 125.073 622.968 122.78 621.101 119.9L624.461 117.26C626.115 119.873 628.301 121.82 631.021 123.1C633.795 124.38 636.728 125.02 639.821 125.02C642.541 125.02 645.021 124.513 647.261 123.5C649.555 122.54 651.368 121.073 652.701 119.1C654.088 117.127 654.781 114.647 654.781 111.66V103.42C653.181 106.033 650.995 108.14 648.221 109.74C645.448 111.287 642.541 112.06 639.501 112.06ZM641.021 107.5C642.675 107.5 644.248 107.207 645.741 106.62C647.288 106.033 648.701 105.26 649.981 104.3C651.261 103.287 652.328 102.167 653.181 100.94C654.035 99.7133 654.568 98.46 654.781 97.18V84.3C653.981 82.2733 652.835 80.4867 651.341 78.94C649.848 77.34 648.141 76.1133 646.221 75.26C644.355 74.3533 642.408 73.9 640.381 73.9C638.035 73.9 635.928 74.4067 634.061 75.42C632.248 76.38 630.701 77.6867 629.421 79.34C628.195 80.94 627.235 82.7533 626.541 84.78C625.848 86.8067 625.501 88.8333 625.501 90.86C625.501 93.1 625.901 95.2333 626.701 97.26C627.501 99.2333 628.595 101.02 629.981 102.62C631.421 104.167 633.075 105.367 634.941 106.22C636.861 107.073 638.888 107.5 641.021 107.5ZM690.234 112.3C687.248 112.3 684.474 111.74 681.914 110.62C679.354 109.447 677.141 107.873 675.274 105.9C673.408 103.873 671.941 101.553 670.874 98.94C669.861 96.3267 669.354 93.5267 669.354 90.54C669.354 86.6467 670.234 83.0733 671.994 79.82C673.808 76.5667 676.288 73.98 679.434 72.06C682.581 70.0867 686.154 69.1 690.154 69.1C694.261 69.1 697.834 70.0867 700.874 72.06C703.968 74.0333 706.394 76.6467 708.154 79.9C709.914 83.1 710.794 86.62 710.794 90.46C710.794 90.8867 710.794 91.3133 710.794 91.74C710.794 92.1133 710.768 92.4067 710.714 92.62H675.034C675.301 95.6067 676.128 98.2733 677.514 100.62C678.954 102.913 680.794 104.753 683.034 106.14C685.328 107.473 687.808 108.14 690.474 108.14C693.194 108.14 695.754 107.447 698.154 106.06C700.608 104.673 702.314 102.86 703.274 100.62L707.994 101.9C707.141 103.873 705.834 105.66 704.074 107.26C702.314 108.86 700.234 110.113 697.834 111.02C695.488 111.873 692.954 112.3 690.234 112.3ZM674.874 88.7H705.674C705.461 85.66 704.634 82.9933 703.194 80.7C701.808 78.4067 699.968 76.62 697.674 75.34C695.434 74.0067 692.954 73.34 690.234 73.34C687.514 73.34 685.034 74.0067 682.794 75.34C680.554 76.62 678.714 78.4333 677.274 80.78C675.888 83.0733 675.088 85.7133 674.874 88.7ZM737.188 112.3C734.201 112.3 731.428 111.74 728.868 110.62C726.308 109.447 724.094 107.873 722.228 105.9C720.361 103.873 718.894 101.553 717.828 98.94C716.814 96.3267 716.308 93.5267 716.308 90.54C716.308 86.6467 717.188 83.0733 718.948 79.82C720.761 76.5667 723.241 73.98 726.388 72.06C729.534 70.0867 733.108 69.1 737.108 69.1C741.214 69.1 744.788 70.0867 747.828 72.06C750.921 74.0333 753.348 76.6467 755.108 79.9C756.868 83.1 757.748 86.62 757.748 90.46C757.748 90.8867 757.748 91.3133 757.748 91.74C757.748 92.1133 757.721 92.4067 757.668 92.62H721.988C722.254 95.6067 723.081 98.2733 724.468 100.62C725.908 102.913 727.748 104.753 729.988 106.14C732.281 107.473 734.761 108.14 737.428 108.14C740.148 108.14 742.708 107.447 745.108 106.06C747.561 104.673 749.268 102.86 750.228 100.62L754.948 101.9C754.094 103.873 752.788 105.66 751.028 107.26C749.268 108.86 747.188 110.113 744.788 111.02C742.441 111.873 739.908 112.3 737.188 112.3ZM721.828 88.7H752.628C752.414 85.66 751.588 82.9933 750.148 80.7C748.761 78.4067 746.921 76.62 744.628 75.34C742.388 74.0067 739.908 73.34 737.188 73.34C734.468 73.34 731.988 74.0067 729.748 75.34C727.508 76.62 725.668 78.4333 724.228 80.78C722.841 83.0733 722.041 85.7133 721.828 88.7ZM793.251 65.02V111.5H787.651V54.7H792.291L829.571 102.06V54.78H835.171V111.5H829.971L793.251 65.02ZM865.703 112.3C862.716 112.3 859.943 111.74 857.383 110.62C854.823 109.447 852.61 107.873 850.743 105.9C848.876 103.873 847.41 101.553 846.343 98.94C845.33 96.3267 844.823 93.5267 844.823 90.54C844.823 86.6467 845.703 83.0733 847.463 79.82C849.276 76.5667 851.756 73.98 854.903 72.06C858.05 70.0867 861.623 69.1 865.623 69.1C869.73 69.1 873.303 70.0867 876.343 72.06C879.436 74.0333 881.863 76.6467 883.623 79.9C885.383 83.1 886.263 86.62 886.263 90.46C886.263 90.8867 886.263 91.3133 886.263 91.74C886.263 92.1133 886.236 92.4067 886.183 92.62H850.503C850.77 95.6067 851.596 98.2733 852.983 100.62C854.423 102.913 856.263 104.753 858.503 106.14C860.796 107.473 863.276 108.14 865.943 108.14C868.663 108.14 871.223 107.447 873.623 106.06C876.076 104.673 877.783 102.86 878.743 100.62L883.463 101.9C882.61 103.873 881.303 105.66 879.543 107.26C877.783 108.86 875.703 110.113 873.303 111.02C870.956 111.873 868.423 112.3 865.703 112.3ZM850.343 88.7H881.143C880.93 85.66 880.103 82.9933 878.663 80.7C877.276 78.4067 875.436 76.62 873.143 75.34C870.903 74.0067 868.423 73.34 865.703 73.34C862.983 73.34 860.503 74.0067 858.263 75.34C856.023 76.62 854.183 78.4333 852.743 80.78C851.356 83.0733 850.556 85.7133 850.343 88.7ZM914.266 109.5C913.839 109.66 913.172 109.953 912.266 110.38C911.359 110.807 910.266 111.18 908.986 111.5C907.706 111.82 906.319 111.98 904.826 111.98C903.279 111.98 901.812 111.687 900.426 111.1C899.092 110.513 898.026 109.633 897.226 108.46C896.426 107.233 896.026 105.74 896.026 103.98V74.14H890.266V69.82H896.026V55.74H901.466V69.82H911.066V74.14H901.466V102.46C901.572 103.953 902.106 105.073 903.066 105.82C904.079 106.567 905.226 106.94 906.506 106.94C907.999 106.94 909.359 106.7 910.586 106.22C911.812 105.687 912.559 105.313 912.826 105.1L914.266 109.5ZM973.543 69.82H978.903L960.983 111.5H956.263L947.543 90.78L938.903 111.5H934.183L916.263 69.82H921.543L936.743 105.9L944.423 87.1L937.383 69.9H942.263L947.543 83.42L952.903 69.9H957.703L950.743 87.1L958.423 105.9L973.543 69.82ZM1002.49 112.3C999.508 112.3 996.734 111.74 994.174 110.62C991.668 109.447 989.481 107.873 987.614 105.9C985.801 103.873 984.388 101.58 983.374 99.02C982.361 96.4067 981.854 93.66 981.854 90.78C981.854 87.7933 982.361 85.02 983.374 82.46C984.388 79.8467 985.828 77.5533 987.694 75.58C989.561 73.5533 991.748 71.98 994.254 70.86C996.814 69.6867 999.588 69.1 1002.57 69.1C1005.56 69.1 1008.31 69.6867 1010.81 70.86C1013.32 71.98 1015.51 73.5533 1017.37 75.58C1019.24 77.5533 1020.68 79.8467 1021.69 82.46C1022.71 85.02 1023.21 87.7933 1023.21 90.78C1023.21 93.66 1022.71 96.4067 1021.69 99.02C1020.68 101.58 1019.24 103.873 1017.37 105.9C1015.56 107.873 1013.37 109.447 1010.81 110.62C1008.31 111.74 1005.53 112.3 1002.49 112.3ZM987.374 90.86C987.374 93.9533 988.041 96.78 989.374 99.34C990.761 101.847 992.601 103.847 994.894 105.34C997.188 106.78 999.721 107.5 1002.49 107.5C1005.27 107.5 1007.8 106.753 1010.09 105.26C1012.39 103.767 1014.23 101.74 1015.61 99.18C1017 96.5667 1017.69 93.74 1017.69 90.7C1017.69 87.6067 1017 84.78 1015.61 82.22C1014.23 79.66 1012.39 77.6333 1010.09 76.14C1007.8 74.6467 1005.27 73.9 1002.49 73.9C999.721 73.9 997.188 74.6733 994.894 76.22C992.654 77.7667 990.841 79.82 989.454 82.38C988.068 84.8867 987.374 87.7133 987.374 90.86ZM1053.11 74.62C1049.49 74.7267 1046.29 75.74 1043.51 77.66C1040.79 79.58 1038.87 82.22 1037.75 85.58V111.5H1032.31V69.82H1037.43V79.82C1038.87 76.8867 1040.77 74.5133 1043.11 72.7C1045.51 70.8867 1048.05 69.8733 1050.71 69.66C1051.25 69.6067 1051.7 69.58 1052.07 69.58C1052.5 69.58 1052.85 69.6067 1053.11 69.66V74.62ZM1090.12 111.5L1074.68 90.14L1065.8 98.46V111.5H1060.36V53.1H1065.8V92.62L1089.4 69.9H1095.4L1078.36 86.94L1096.04 111.5H1090.12Z" fill="#114F67"/>
</svg>
